<svg width="32" height="27" viewBox="0 0 32 27" fill="none" xmlns="http://www.w3.org/2000/svg">
<path d="M13.6651 17.5386C12.7104 17.5386 12.1512 17.0012 12.1512 16.0368V14.9208C8.14174 14.6453 4.14588 13.8187 0 12.2342V9.96101C5.10052 12.2205 10.2147 13.0196 15.7789 13.0196C21.3568 13.0196 26.4709 12.2205 31.5714 9.96101V12.2342C27.4255 13.8187 23.4297 14.6453 19.4202 14.9208V16.0368C19.4202 17.0012 18.861 17.5386 17.9064 17.5386H13.6651ZM4.21407 26.7004H27.3573C30.1804 26.7004 31.5714 25.3228 31.5714 22.4984V9.09304C31.5714 6.26868 30.1804 4.89095 27.3573 4.89095H4.21407C1.40469 4.89095 0 6.26868 0 9.09304V22.4984C0 25.3228 1.40469 26.7004 4.21407 26.7004ZM8.86455 6.08958H10.9784V3.65099C10.9784 2.60391 11.5921 2.01149 12.6558 2.01149H18.9156C19.9794 2.01149 20.5794 2.60391 20.5794 3.65099V6.06202H22.6932V3.80255C22.6932 1.2124 21.3431 0 18.8747 0H12.6831C10.3511 0 8.86455 1.2124 8.86455 3.80255V6.08958Z" fill="#CAFF33"/>
</svg>
