<svg width="48" height="48" viewBox="0 0 48 48" fill="none" xmlns="http://www.w3.org/2000/svg">
<rect width="48" height="48" rx="24" fill="url(#paint0_linear_108_2456)" fill-opacity="0.1"/>
<rect x="0.5" y="0.5" width="47" height="47" rx="23.5" stroke="url(#paint1_linear_108_2456)" stroke-opacity="0.2"/>
<g clip-path="url(#clip0_108_2456)">
<path d="M26.1535 17.5027C26.1799 17.5335 26.1843 17.5423 26.1887 17.5423C26.6242 17.6039 26.8265 17.9294 27.0597 18.255C27.328 18.6245 27.6492 18.9632 27.9923 19.2711C28.8941 20.085 29.4484 21.0704 29.6331 22.2713C29.9543 24.374 28.7489 26.534 26.7693 27.3742C23.7648 28.6499 20.4083 26.7099 20.0608 23.4634C19.876 21.7346 20.5095 20.3049 21.8292 19.1788C22.2559 18.8136 22.6122 18.3913 22.907 17.9118C22.9598 17.8238 23.0565 17.7535 23.1489 17.7095C23.2985 17.6391 23.4656 17.5995 23.6548 17.5335C23.5932 17.4587 23.5492 17.4059 23.5008 17.3531C23.2061 17.0496 22.9114 16.7373 22.6122 16.4425C22.5067 16.337 22.4583 16.227 22.4627 16.0774C22.4715 15.4528 22.4671 14.8325 22.4671 14.2078C22.4671 13.9571 22.775 13.5568 23.0257 13.5084C23.3117 13.4512 23.6064 13.4204 23.8924 13.3632C23.9759 13.3456 24.0683 13.2928 24.1167 13.2268C24.5346 12.6638 25.2693 12.6594 25.6828 13.218C25.74 13.2928 25.8499 13.35 25.9423 13.372C26.2063 13.4292 26.4746 13.46 26.7429 13.5084C27.0113 13.5612 27.2972 13.9087 27.2972 14.1814C27.2972 14.8105 27.2928 15.444 27.3016 16.073C27.306 16.2358 27.2532 16.3458 27.1433 16.4601C26.8089 16.7989 26.4878 17.1464 26.1535 17.5027ZM24.3059 19.953C24.2927 20.0058 24.2795 20.0366 24.2839 20.063C24.3411 20.3577 24.2047 20.4853 23.9319 20.5953C23.4129 20.8108 23.1797 21.2463 23.1929 21.805C23.2061 22.3593 23.5052 22.7024 24.0067 22.8828C24.2267 22.9619 24.4554 23.0191 24.6754 23.0939C24.8777 23.1599 25.0801 23.2259 25.2737 23.3051C25.4364 23.3711 25.5288 23.4986 25.5112 23.6834C25.4936 23.8726 25.3748 23.9825 25.2077 24.0133C25.0361 24.0485 24.8514 24.0793 24.6886 24.0397C24.3719 23.9649 24.0683 23.8374 23.734 23.723C23.5844 23.9209 23.4129 24.1453 23.2061 24.4224C23.5184 24.5588 23.7868 24.6996 24.0727 24.7964C24.2355 24.8491 24.3015 24.9195 24.2795 25.0867C24.2663 25.2055 24.2751 25.3286 24.2751 25.465C24.5258 25.465 24.737 25.465 24.9481 25.465C25.2517 25.465 25.2649 25.465 25.2473 25.1527C25.2385 24.9591 25.2825 24.8535 25.4936 24.8271C25.6036 24.8139 25.7136 24.7524 25.8147 24.6952C26.281 24.44 26.4746 24.0309 26.4658 23.5118C26.457 23.0191 26.2107 22.6804 25.7708 22.4824C25.5728 22.3945 25.3616 22.3285 25.1505 22.2581C24.8865 22.1701 24.6226 22.0909 24.3587 21.9942C24.1959 21.9326 24.1299 21.8006 24.1431 21.6246C24.1563 21.4575 24.2575 21.3431 24.4114 21.3167C24.5962 21.2859 24.7942 21.2683 24.9745 21.2991C25.1945 21.3387 25.4012 21.4399 25.6344 21.5191C25.7796 21.2947 25.9291 21.0572 26.1051 20.78C25.9027 20.6876 25.7312 20.5733 25.5464 20.5425C25.2869 20.4985 25.2077 20.3797 25.2385 20.1334C25.2473 20.0762 25.1681 19.9618 25.1197 19.9574C24.8558 19.9442 24.5786 19.953 24.3059 19.953Z" fill="#CAFF33"/>
<path d="M24.5428 35.1912C23.6058 35.1912 22.6644 35.1648 21.7274 35.2C21.0983 35.222 20.5616 35.0328 20.0557 34.6985C19.3387 34.219 18.6832 33.6735 18.1114 33.0225C17.2667 32.0591 16.4133 31.0957 15.5687 30.1323C14.8781 29.3405 15.1904 28.1703 16.1758 27.8492C16.2902 27.8096 16.4221 27.7964 16.5409 27.7964C17.3239 27.792 18.1114 27.7876 18.8944 27.8008C19.0044 27.8008 19.1363 27.858 19.2155 27.9328C19.7522 28.4519 20.2801 28.9841 20.8036 29.5164C20.9092 29.622 21.0059 29.644 21.1555 29.622C21.4722 29.5736 21.7978 29.5296 22.1189 29.5296C23.6014 29.5208 25.0795 29.5252 26.562 29.5252C27.0678 29.5252 27.4418 29.7848 27.5737 30.2159C27.7761 30.8669 27.301 31.4784 26.5752 31.4828C25.5942 31.4872 24.6088 31.4828 23.6278 31.4828C23.4518 31.4828 23.2759 31.4784 23.0999 31.4828C22.7832 31.4916 22.5764 31.694 22.572 31.9799C22.572 32.2702 22.7788 32.4902 23.0911 32.4902C24.6528 32.4946 26.2144 32.4946 27.7761 32.4902C28.0928 32.4902 28.3216 32.3142 28.5415 32.1031C29.5621 31.1221 30.5827 30.1411 31.6077 29.1645C32.0256 28.7642 32.5799 28.7466 32.9758 29.1029C33.4025 29.49 33.4113 30.1147 32.9802 30.5502C32.5271 31.0121 32.0652 31.4476 31.6077 31.8919C30.5959 32.8729 29.5841 33.8495 28.5767 34.8305C28.3304 35.068 28.0576 35.1912 27.7101 35.1912C26.6543 35.1868 25.5986 35.1912 24.5428 35.1912Z" fill="#CAFF33"/>
<path d="M19.3074 16.6006C19.7341 17.0273 20.1609 17.454 20.5788 17.8719C20.3192 18.1315 20.0465 18.4042 19.7737 18.6725C19.369 18.2546 18.9423 17.8147 18.5332 17.3924C18.7752 17.1461 19.0479 16.8645 19.3074 16.6006Z" fill="#CAFF33"/>
<path d="M30.4159 16.6006C30.6754 16.8601 30.9438 17.1373 31.1945 17.388C30.7766 17.8059 30.3411 18.2414 29.9188 18.6593C29.6636 18.4042 29.3953 18.1271 29.127 17.8587C29.5449 17.4496 29.976 17.0273 30.4159 16.6006Z" fill="#CAFF33"/>
<path d="M31.4269 23.5337C31.4269 23.1598 31.4225 22.8166 31.4313 22.4735C31.4313 22.4295 31.5149 22.3503 31.5589 22.3503C32.0955 22.3416 32.6278 22.3416 33.1645 22.3503C33.2085 22.3503 33.2921 22.4163 33.2921 22.4515C33.3009 22.8079 33.2965 23.1642 33.2965 23.5337C32.6674 23.5337 32.0603 23.5337 31.4269 23.5337Z" fill="#CAFF33"/>
<path d="M18.2837 23.5469C17.6766 23.5469 17.1091 23.5513 16.5373 23.5425C16.4933 23.5425 16.4229 23.4589 16.4185 23.4105C16.4097 23.1026 16.4053 22.7947 16.4185 22.4867C16.4185 22.4383 16.5065 22.3503 16.5549 22.3503C17.0827 22.3416 17.6106 22.3416 18.1385 22.3503C18.1869 22.3503 18.2749 22.4207 18.2749 22.4647C18.2881 22.8079 18.2837 23.1598 18.2837 23.5469Z" fill="#CAFF33"/>
</g>
<defs>
<linearGradient id="paint0_linear_108_2456" x1="24" y1="-31.7838" x2="24" y2="123.892" gradientUnits="userSpaceOnUse">
<stop stop-color="#CAFF33"/>
<stop offset="0.467671" stop-color="#CAFF33" stop-opacity="0"/>
</linearGradient>
<linearGradient id="paint1_linear_108_2456" x1="24" y1="-83.3514" x2="24" y2="91.4595" gradientUnits="userSpaceOnUse">
<stop stop-color="#CAFF33"/>
<stop offset="0.716291" stop-color="#CAFF33" stop-opacity="0"/>
</linearGradient>
<clipPath id="clip0_108_2456">
<rect width="18.1021" height="22.4" fill="white" transform="translate(15.1992 12.7998)"/>
</clipPath>
</defs>
</svg>
