<svg width="48" height="48" viewBox="0 0 48 48" fill="none" xmlns="http://www.w3.org/2000/svg">
<rect width="48" height="48" rx="24" fill="url(#paint0_linear_108_2469)" fill-opacity="0.1"/>
<rect x="0.5" y="0.5" width="47" height="47" rx="23.5" stroke="url(#paint1_linear_108_2469)" stroke-opacity="0.2"/>
<g clip-path="url(#clip0_108_2469)">
<path d="M31.7272 23.2146C31.7272 23.8129 31.7352 24.4072 31.7232 25.0055C31.7152 25.3283 31.8075 25.6116 31.9761 25.8793C32.4097 26.5799 32.9839 27.1664 33.566 27.745C33.7828 27.9615 34.0077 28.1661 34.2365 28.3669C34.3489 28.4653 34.4011 28.5676 34.4011 28.7211C34.3931 29.3784 34.3931 30.0318 34.3971 30.6891C34.4011 31.2362 34.1602 31.6456 33.6584 31.8739C33.1445 32.1061 32.6627 32.0077 32.2411 31.6495C31.3699 30.9017 30.5027 30.1499 29.6355 29.4021C29.0453 28.8904 28.4591 28.3708 27.8569 27.8749C27.6441 27.6978 27.3912 27.5679 27.1463 27.434C26.7849 27.2372 26.3955 27.131 25.9739 27.1467C25.6688 27.1585 25.3556 27.1624 25.0505 27.1388C24.6048 27.1034 24.2877 26.8003 24.2274 26.3831C24.1712 26.0171 24.3921 25.6235 24.7614 25.4818C24.9019 25.4267 25.0585 25.403 25.2111 25.403C26.3674 25.3952 27.5237 25.3991 28.6839 25.3991C29.1176 25.3991 29.2741 25.2456 29.2741 24.8166C29.2741 23.9506 29.2701 23.0847 29.2741 22.2188C29.2781 21.8882 29.1617 21.6284 28.9088 21.404C27.4514 20.1209 26.002 18.8299 24.5486 17.5388C24.1592 17.1925 24.115 16.6808 24.4402 16.3069C24.7614 15.9329 25.2874 15.8975 25.7009 16.2124C27.5598 17.6294 29.4147 19.0463 31.2816 20.4554C31.5907 20.6877 31.7352 20.9711 31.7312 21.345C31.7232 21.9669 31.7272 22.5888 31.7272 23.2146Z" fill="#CAFF33"/>
<path d="M12.805 29.7643C12.805 29.41 12.809 29.0558 12.801 28.7015C12.797 28.5638 12.8532 28.4732 12.9455 28.3788C13.5518 27.7687 14.15 27.1507 14.7442 26.5288C14.8686 26.3989 14.961 26.2454 15.0694 26.1037C15.3544 25.7219 15.4869 25.3047 15.4749 24.8167C15.4508 23.6909 15.4789 22.5613 15.4628 21.4317C15.4548 20.9869 15.6154 20.672 15.9808 20.3965C17.8356 19.011 19.6704 17.6019 21.5133 16.1967C21.8987 15.9015 22.4286 15.9488 22.7418 16.303C23.063 16.6651 23.0349 17.1847 22.6615 17.5232C22.0954 18.0349 21.5213 18.5347 20.9512 19.0425C20.0478 19.8415 19.1445 20.6445 18.2411 21.4435C18.0283 21.6324 17.924 21.8607 17.924 22.1362C17.924 23.0533 17.9199 23.9704 17.924 24.8914C17.924 25.2299 18.1006 25.3953 18.4499 25.3953C19.6423 25.3992 20.8307 25.3953 22.0231 25.3992C22.5852 25.3992 22.9787 25.7849 22.9666 26.3045C22.9586 26.702 22.6655 27.0602 22.26 27.1192C22.0191 27.1547 21.7662 27.1704 21.5213 27.1468C20.6982 27.0681 20.0037 27.3633 19.3894 27.8435C18.7631 28.3315 18.1769 28.8747 17.5787 29.3903C16.6994 30.1461 15.8242 30.9096 14.9409 31.6614C14.2263 32.2715 13.1704 32.0039 12.8652 31.134C12.8251 31.0238 12.813 30.9018 12.809 30.7876C12.801 30.4491 12.805 30.1067 12.805 29.7643Z" fill="#CAFF33"/>
<path d="M24.1714 24.0297C24.1714 24.2187 24.1714 24.3958 24.1714 24.5887C23.8341 24.5887 23.5129 24.5887 23.1636 24.5887C23.1636 24.4351 23.1596 24.2856 23.1636 24.136C23.1676 24.0258 23.1355 23.9786 23.0191 23.951C22.6859 23.8723 22.3767 23.7385 22.0876 23.5102C22.2723 23.2701 22.449 23.0418 22.6096 22.8292C22.9147 22.9434 23.1917 23.0772 23.4848 23.1441C23.6976 23.1914 23.9345 23.1599 24.1553 23.1244C24.3239 23.0969 24.4323 22.967 24.4444 22.7899C24.4604 22.6088 24.3641 22.4829 24.2035 22.4199C23.9305 22.3176 23.6454 22.2388 23.3684 22.1483C23.1676 22.0814 22.9589 22.0224 22.7621 21.9397C22.3004 21.7468 22.0555 21.4044 22.0435 20.9006C22.0314 20.3732 22.2322 19.9481 22.714 19.7198C23.0271 19.5702 23.2961 19.46 23.1395 19.0231C23.4808 19.0231 23.7779 19.0192 24.079 19.031C24.1111 19.031 24.1673 19.1294 24.1673 19.1845C24.1874 19.519 24.1874 19.5112 24.5046 19.6214C24.6893 19.6843 24.8659 19.7749 25.0667 19.8654C24.8981 20.1212 24.7615 20.3456 24.609 20.5581C24.5849 20.5896 24.4885 20.5857 24.4323 20.57C24.1673 20.503 23.9104 20.4164 23.6454 20.3653C23.541 20.3456 23.4206 20.3771 23.3122 20.4046C23.1516 20.4479 23.0432 20.5542 23.0311 20.7274C23.0191 20.8966 23.0954 21.0265 23.252 21.0895C23.4567 21.1722 23.6655 21.2351 23.8743 21.3021C24.1031 21.3768 24.34 21.4319 24.5608 21.5146C25.1992 21.7586 25.4561 22.1444 25.424 22.7781C25.3919 23.3606 25.0265 23.7936 24.4243 23.9628C24.352 23.9864 24.2757 24.0061 24.1714 24.0297Z" fill="#CAFF33"/>
</g>
<defs>
<linearGradient id="paint0_linear_108_2469" x1="24" y1="-31.7838" x2="24" y2="123.892" gradientUnits="userSpaceOnUse">
<stop stop-color="#CAFF33"/>
<stop offset="0.467671" stop-color="#CAFF33" stop-opacity="0"/>
</linearGradient>
<linearGradient id="paint1_linear_108_2469" x1="24" y1="-83.3514" x2="24" y2="91.4595" gradientUnits="userSpaceOnUse">
<stop stop-color="#CAFF33"/>
<stop offset="0.716291" stop-color="#CAFF33" stop-opacity="0"/>
</linearGradient>
<clipPath id="clip0_108_2469">
<rect width="21.6" height="16" fill="white" transform="translate(12.8008 16)"/>
</clipPath>
</defs>
</svg>
