<svg width="31" height="26" viewBox="0 0 31 26" fill="none" xmlns="http://www.w3.org/2000/svg">
<path d="M3.28125 0.25C1.81424 0.25 0.625 1.43924 0.625 2.90625V3.96875C0.625 5.43576 1.81424 6.625 3.28125 6.625H27.7188C29.1858 6.625 30.375 5.43576 30.375 3.96875V2.90625C30.375 1.43924 29.1858 0.25 27.7188 0.25H3.28125Z" fill="#CAFF33"/>
<path fill-rule="evenodd" clip-rule="evenodd" d="M2.87296 8.75L3.63764 21.7496C3.76978 23.996 5.63003 25.75 7.8803 25.75H23.1193C25.3696 25.75 27.2298 23.996 27.3619 21.7496L28.1266 8.75H2.87296ZM15.5 10.875C16.0868 10.875 16.5625 11.3507 16.5625 11.9375V18.9349L18.9987 16.4987C19.4136 16.0838 20.0864 16.0838 20.5013 16.4987C20.9162 16.9136 20.9162 17.5864 20.5013 18.0013L16.2513 22.2513C15.8364 22.6662 14.8524 22.6662 14.4375 22.2513L10.4987 18.0013C10.0838 17.5864 10.0838 16.9136 10.4987 16.4987C10.9136 16.0838 11.5864 16.0838 12.0013 16.4987L14.4375 18.9349V11.9375C14.4375 11.3507 14.9132 10.875 15.5 10.875Z" fill="#CAFF33"/>
</svg>
